<svg xmlns="http://www.w3.org/2000/svg" width="1200" height="630" viewBox="0 0 1200 630">
  <defs>
    <linearGradient id="g" x1="0" x2="1" y1="0" y2="1">
      <stop offset="0" stop-color="#fff8e7"/>
      <stop offset="0.5" stop-color="#ffe0a3"/>
      <stop offset="1" stop-color="#f7a928"/>
    </linearGradient>
    <filter id="shadow" x="-20%" y="-20%" width="140%" height="140%">
      <feDropShadow dx="0" dy="12" stdDeviation="14" flood-color="#6b3b00" flood-opacity="0.25"/>
    </filter>
  </defs>
  <rect width="1200" height="630" fill="url(#g)"/>
  <circle cx="1030" cy="80" r="150" fill="#fff3cf" opacity="0.7"/>
  <circle cx="160" cy="540" r="130" fill="#fff3cf" opacity="0.65"/>
  <rect x="92" y="82" width="1016" height="466" rx="36" fill="#ffffff" opacity="0.92" filter="url(#shadow)"/>
  <text x="140" y="178" font-family="Arial, sans-serif" font-size="42" font-weight="700" fill="#8a4b00">Java 0 to Infinity</text>
  <text x="140" y="248" font-family="Arial, sans-serif" font-size="64" font-weight="800" fill="#231f20">OOP Terms for Class 9</text>
  <text x="140" y="315" font-family="Arial, sans-serif" font-size="34" fill="#5c3b06">Real examples: marks, fees, library, attendance, transport</text>
  <g transform="translate(140 370)">
    <rect width="200" height="92" rx="18" fill="#fff5db" stroke="#e19a19"/>
    <text x="32" y="38" font-family="Arial" font-size="22" font-weight="700" fill="#8a4b00">Class</text>
    <text x="32" y="68" font-family="Arial" font-size="18" fill="#4b3820">Blueprint</text>
  </g>
  <g transform="translate(375 370)">
    <rect width="200" height="92" rx="18" fill="#fff5db" stroke="#e19a19"/>
    <text x="32" y="38" font-family="Arial" font-size="22" font-weight="700" fill="#8a4b00">Object</text>
    <text x="32" y="68" font-family="Arial" font-size="18" fill="#4b3820">Real record</text>
  </g>
  <g transform="translate(610 370)">
    <rect width="200" height="92" rx="18" fill="#fff5db" stroke="#e19a19"/>
    <text x="32" y="38" font-family="Arial" font-size="22" font-weight="700" fill="#8a4b00">Method</text>
    <text x="32" y="68" font-family="Arial" font-size="18" fill="#4b3820">Useful action</text>
  </g>
  <g transform="translate(845 370)">
    <rect width="200" height="92" rx="18" fill="#fff5db" stroke="#e19a19"/>
    <text x="32" y="38" font-family="Arial" font-size="22" font-weight="700" fill="#8a4b00">OOP</text>
    <text x="32" y="68" font-family="Arial" font-size="18" fill="#4b3820">Model reality</text>
  </g>
</svg>
