<svg xmlns="http://www.w3.org/2000/svg" width="1200" height="630" viewBox="0 0 1200 630"><rect width="1200" height="630" fill="#fffaf0"/><circle cx="1000" cy="80" r="260" fill="#fff4d6"/><text x="80" y="140" font-family="Arial" font-size="58" font-weight="800" fill="#92400e">HTML img Tag</text><text x="80" y="210" font-family="Arial" font-size="36" fill="#6b5a3d">0 to Infinity Lesson</text><g transform="translate(720 320)"><line x1="0" y1="60" x2="0" y2="220" stroke="#15803d" stroke-width="18" stroke-linecap="round"/><g fill="#f59e0b" stroke="#b45309" stroke-width="5"><ellipse cx="0" cy="-80" rx="45" ry="110"/><ellipse cx="0" cy="-80" rx="45" ry="110" transform="rotate(45)"/><ellipse cx="0" cy="-80" rx="45" ry="110" transform="rotate(90)"/><ellipse cx="0" cy="-80" rx="45" ry="110" transform="rotate(135)"/><ellipse cx="0" cy="-80" rx="45" ry="110" transform="rotate(180)"/><ellipse cx="0" cy="-80" rx="45" ry="110" transform="rotate(225)"/><ellipse cx="0" cy="-80" rx="45" ry="110" transform="rotate(270)"/><ellipse cx="0" cy="-80" rx="45" ry="110" transform="rotate(315)"/></g><circle cx="0" cy="0" r="60" fill="#fbbf24" stroke="#92400e" stroke-width="6"/></g><rect x="80" y="420" width="560" height="86" rx="24" fill="#ffffff" stroke="#efdfb2"/><text x="118" y="475" font-family="Consolas, monospace" font-size="30" fill="#111827">&lt;img src="pics/flower.png" alt="..."&gt;</text></svg>