<svg xmlns="http://www.w3.org/2000/svg" width="820" height="450" viewBox="0 0 820 450">
<rect width="820" height="450" rx="24" fill="#061533"/>
<text x="410" y="44" text-anchor="middle" font-family="Arial" font-size="24" fill="#ffd54f" font-weight="800">Milestone 20: End of Quiz</text>
<rect x="80" y="60" width="320" height="12" rx="6" fill="#00c853"/>
<rect x="80" y="60" width="640" height="12" rx="6" fill="none" stroke="rgba(255,255,255,.35)"/>
<rect x="80" y="95" width="140" height="62" rx="14" fill="#fff8d8" stroke="#102d6b"/><text x="150" y="131" text-anchor="middle" font-size="15" font-family="Arial" fill="#061533" font-weight="700">Project Files</text><rect x="260" y="95" width="140" height="62" rx="14" fill="#dbeafe" stroke="#102d6b"/><text x="330" y="131" text-anchor="middle" font-size="15" font-family="Arial" fill="#061533" font-weight="700">Header</text><rect x="440" y="95" width="140" height="62" rx="14" fill="#dcfce7" stroke="#102d6b"/><text x="510" y="131" text-anchor="middle" font-size="15" font-family="Arial" fill="#061533" font-weight="700">Game Layout</text><rect x="80" y="210" width="140" height="62" rx="14" fill="#fef3c7" stroke="#102d6b"/><text x="150" y="246" text-anchor="middle" font-size="15" font-family="Arial" fill="#061533" font-weight="700">JSON Data</text><rect x="260" y="210" width="140" height="62" rx="14" fill="#e0e7ff" stroke="#102d6b"/><text x="330" y="246" text-anchor="middle" font-size="15" font-family="Arial" fill="#061533" font-weight="700">Question</text><rect x="440" y="210" width="140" height="62" rx="14" fill="#fce7f3" stroke="#102d6b"/><text x="510" y="246" text-anchor="middle" font-size="15" font-family="Arial" fill="#061533" font-weight="700">Options</text>
<text x="410" y="420" text-anchor="middle" font-family="Arial" font-size="16" fill="#c8d7ff">Expected output grows step by step until the complete KBC quiz is ready.</text>
</svg>